<svg width="128" height="128" viewBox="0 0 128 128" fill="none" xmlns="http://www.w3.org/2000/svg">
<g id="Vector">
<path d="M127 63.5C127 67.0899 124.09 70 120.5 70C116.91 70 114 67.0899 114 63.5C114 59.9101 116.91 57 120.5 57C124.09 57 127 59.9101 127 63.5Z" fill="#BA5252"/>
<path d="M14 63.5C14 67.0899 11.0899 70 7.5 70C3.91015 70 1 67.0899 1 63.5C1 59.9101 3.91015 57 7.5 57C11.0899 57 14 59.9101 14 63.5Z" fill="#BA5252"/>
<path d="M64 127C60.4101 127 57.5 124.09 57.5 120.5C57.5 116.91 60.4101 114 64 114C67.5898 114 70.5 116.91 70.5 120.5C70.5 124.09 67.5898 127 64 127Z" fill="#BA5252"/>
<path d="M64 14C60.4101 14 57.5 11.0899 57.5 7.5C57.5 3.91015 60.4101 1 64 1C67.5899 1 70.5 3.91015 70.5 7.5C70.5 11.0899 67.5899 14 64 14Z" fill="#BA5252"/>
<path d="M121 64.5L7 64.5M63 121L63 7M127 63.5C127 67.0899 124.09 70 120.5 70C116.91 70 114 67.0899 114 63.5C114 59.9101 116.91 57 120.5 57C124.09 57 127 59.9101 127 63.5ZM14 63.5C14 67.0899 11.0899 70 7.5 70C3.91015 70 1 67.0899 1 63.5C1 59.9101 3.91015 57 7.5 57C11.0899 57 14 59.9101 14 63.5ZM64 127C60.4101 127 57.5 124.09 57.5 120.5C57.5 116.91 60.4101 114 64 114C67.5898 114 70.5 116.91 70.5 120.5C70.5 124.09 67.5898 127 64 127ZM64 14C60.4101 14 57.5 11.0899 57.5 7.5C57.5 3.91015 60.4101 1 64 1C67.5899 1 70.5 3.91015 70.5 7.5C70.5 11.0899 67.5899 14 64 14Z" stroke="#BA5252"/>
</g>
</svg>
