<svg width="1605" height="1441" viewBox="0 0 1605 1441" fill="none" xmlns="http://www.w3.org/2000/svg">
<path opacity="0.57" d="M3.05078 977.709V1148.98C3.05078 1148.98 255.511 1404.51 276.231 1425.23C296.951 1445.95 328.721 1444.57 383.971 1389.32C439.221 1334.07 1542.83 233.22 1577.36 198.69C1611.89 164.16 1599.46 157.25 1599.46 124.1C1599.46 90.9496 1601.64 41.2295 1601.64 41.2295L1569.07 2.85938H802.341C802.341 2.85938 777.621 37.0795 765.191 49.5195C752.761 61.9595 759.671 77.1395 776.241 90.9595C792.811 104.769 847.471 151.729 847.471 151.729V256.7H729.281L3.05078 977.709Z" stroke="white" stroke-width="5" stroke-miterlimit="10"/>
</svg>
